<?xml version="1.0" encoding="UTF-8"?>
<svg id="Capa_1" xmlns="http://www.w3.org/2000/svg" version="1.1" viewBox="0 0 2018.34 525.77">
  <!-- Generator: Adobe Illustrator 30.4.0, SVG Export Plug-In . SVG Version: 2.1.4 Build 226)  -->
  <defs>
    <style>
      .st0 {
        fill: #ecbad2;
      }
    </style>
  </defs>
  <path class="st0" d="M2018.34,525.77V22.94c-67.25-27.07-144.09-31.33-218.25-6.61-110.76,36.92-187.52,129.12-209.87,235.7-38.22-5.74-78.33-2.79-117.5,10.27-60.65,20.22-108.55,61.17-138.46,112.34-38.01-42.57-99.06-60.9-156.64-41.7-41.15,13.72-72.21,43.82-88.37,80.64-37.69-45.44-100.75-65.53-160.12-45.74-15.01,5-28.67,12.2-40.76,21.09-.47-1.6-.97-3.19-1.5-4.79-25.75-77.23-109.22-118.96-186.45-93.21-18.34,6.11-34.67,15.49-48.57,27.25-54.44-82.47-161.51-117.15-255.88-77.4-2.22.93-4.4,1.92-6.57,2.92C328.01,104.65,178.12,19.55,21.47,46.31c-6.4,1.09-15.22,2.37-21.47,3.8v475.65h2018.34Z"/>
</svg>